<?xml version="1.0" encoding="iso-8859-1"?>
<!-- Generator: Adobe Illustrator 19.0.0, SVG Export Plug-In . SVG Version: 6.00 Build 0)  -->
<svg version="1.1" id="Layer_1" xmlns="http://www.w3.org/2000/svg" xmlns:xlink="http://www.w3.org/1999/xlink" x="0px" y="0px"
	 viewBox="0 0 512.001 512.001" style="enable-background:new 0 0 512.001 512.001;" xml:space="preserve">
<path style="fill:#5D4E38;" d="M253.409,330.048c-31.981,0-57.999,26.019-57.999,57.999s26.019,57.999,57.999,57.999
	s57.999-26.019,57.999-57.999S285.39,330.048,253.409,330.048z"/>
<path style="fill:#917857;" d="M256.001,65.954H16.893C7.564,65.954,0,73.517,0,82.847v305.201c0,9.329,7.564,16.893,16.893,16.893
	h239.108c9.329,0,16.893-7.564,16.893-16.893V82.847C272.894,73.516,265.33,65.954,256.001,65.954z"/>
<path style="fill:#67573E;" d="M495.107,65.954H256.001v338.987h239.108c9.329,0,16.893-7.564,16.893-16.893V82.847
	C512,73.516,504.436,65.954,495.107,65.954z"/>
<rect x="20.835" y="96.921" style="fill:#BBDDF7;" width="236.852" height="278.172"/>
<rect x="257.686" y="96.921" style="fill:#A3CCEC;" width="232.628" height="278.172"/>
<rect x="31.534" y="85.659" style="fill:#D0E6F7;" width="224.464" height="278.172"/>
<rect x="255.997" y="85.659" style="fill:#BBDDF7;" width="224.464" height="278.172"/>
<g>
	<path style="fill:#57565C;" d="M96.819,170.691h46.949c9.329,0,16.893-7.564,16.893-16.893c0-9.329-7.564-16.893-16.893-16.893
		H96.819c-9.329,0-16.893,7.564-16.893,16.893C79.925,163.127,87.489,170.691,96.819,170.691z"/>
	<path style="fill:#57565C;" d="M96.819,239.389h93.862c9.329,0,16.893-7.564,16.893-16.893c0-9.329-7.564-16.893-16.893-16.893
		H96.819c-9.329,0-16.893,7.564-16.893,16.893C79.925,231.826,87.489,239.389,96.819,239.389z"/>
	<path style="fill:#57565C;" d="M190.681,274.301H96.819c-9.329,0-16.893,7.564-16.893,16.893c0,9.329,7.564,16.893,16.893,16.893
		h93.862c9.329,0,16.893-7.564,16.893-16.893C207.574,281.865,200.01,274.301,190.681,274.301z"/>
</g>
<g>
	<path style="fill:#4B4A4F;" d="M319.807,170.691h93.862c9.329,0,16.893-7.564,16.893-16.893c0-9.329-7.564-16.893-16.893-16.893
		h-93.862c-9.329,0-16.893,7.564-16.893,16.893C302.914,163.127,310.477,170.691,319.807,170.691z"/>
	<path style="fill:#4B4A4F;" d="M413.669,205.603h-93.862c-9.329,0-16.893,7.564-16.893,16.893c0,9.329,7.564,16.893,16.893,16.893
		h93.862c9.329,0,16.893-7.564,16.893-16.893C430.562,213.167,422.998,205.603,413.669,205.603z"/>
	<path style="fill:#4B4A4F;" d="M413.669,274.301h-93.862c-9.329,0-16.893,7.564-16.893,16.893c0,9.329,7.564,16.893,16.893,16.893
		h93.862c9.329,0,16.893-7.564,16.893-16.893C430.562,281.865,422.998,274.301,413.669,274.301z"/>
</g>
<polygon style="fill:#DE3205;" points="311.409,123.39 283.704,149.668 256.001,123.39 256.001,65.954 311.409,65.954 "/>
<polygon style="fill:#BF2717;" points="283.704,65.954 283.704,149.668 311.409,123.39 311.409,65.954 "/>
<g>
</g>
<g>
</g>
<g>
</g>
<g>
</g>
<g>
</g>
<g>
</g>
<g>
</g>
<g>
</g>
<g>
</g>
<g>
</g>
<g>
</g>
<g>
</g>
<g>
</g>
<g>
</g>
<g>
</g>
</svg>
