<?xml version="1.0" encoding="iso-8859-1"?>
<!-- Generator: Adobe Illustrator 19.0.0, SVG Export Plug-In . SVG Version: 6.00 Build 0)  -->
<svg version="1.1" id="Layer_1" xmlns="http://www.w3.org/2000/svg" xmlns:xlink="http://www.w3.org/1999/xlink" x="0px" y="0px"
	 viewBox="0 0 512 512" style="enable-background:new 0 0 512 512;" xml:space="preserve">
<rect x="4" y="52" style="fill:#FFFFFF;" width="504" height="408"/>
<path style="fill:#AAC1CE;" d="M504,56v400H8V56H504 M512,48H0v416h512V48z"/>
<path style="fill:#415E72;" d="M400.168,124.56c12.4,0,22.456,10.056,22.456,22.456s-10.056,22.456-22.456,22.456
	s-22.456-10.056-22.456-22.456l0,0C377.728,134.624,387.776,124.576,400.168,124.56"/>
<path style="fill:#8BA0AE;" d="M424.992,184.976l-24.8,18.712l-24.8-18.712c-17.712,5.376-29.92,21.592-30.168,40.104H455.2
	C454.944,206.56,442.72,190.336,424.992,184.976z"/>
<path style="fill:#415E72;" d="M255.832,124.56c12.4,0,22.456,10.056,22.456,22.456s-10.056,22.456-22.456,22.456
	s-22.456-10.056-22.456-22.456l0,0C233.392,134.624,243.44,124.576,255.832,124.56"/>
<path style="fill:#8BA0AE;" d="M280.656,184.976l-24.8,18.712l-24.8-18.712c-17.752,5.344-29.992,21.568-30.256,40.104h110.032
	C310.576,206.568,298.376,190.344,280.656,184.976z"/>
<path style="fill:#415E72;" d="M111.496,124.56c12.4,0,22.456,10.056,22.456,22.456s-10.056,22.456-22.456,22.456
	S89.04,159.416,89.04,147.016l0,0C89.056,134.624,99.104,124.576,111.496,124.56"/>
<g>
	<path style="fill:#8BA0AE;" d="M136.328,184.976l-24.8,18.712l-24.8-18.712c-17.712,5.376-29.92,21.592-30.168,40.104h109.936
		C166.248,206.568,154.04,190.352,136.328,184.976z"/>
	<rect x="55.832" y="351.44" style="fill:#8BA0AE;" width="112" height="8"/>
	<rect x="71.832" y="383.44" style="fill:#8BA0AE;" width="80" height="8"/>
	<rect x="199.832" y="351.44" style="fill:#8BA0AE;" width="112" height="8"/>
	<rect x="215.832" y="383.44" style="fill:#8BA0AE;" width="80" height="8"/>
	<rect x="343.832" y="351.44" style="fill:#8BA0AE;" width="112" height="8"/>
	<rect x="359.832" y="383.44" style="fill:#8BA0AE;" width="80" height="8"/>
</g>
<g>
	<circle style="fill:#E04F5F;" cx="111.832" cy="291.44" r="16"/>
	<circle style="fill:#E04F5F;" cx="255.832" cy="291.44" r="16"/>
	<circle style="fill:#E04F5F;" cx="399.832" cy="291.44" r="16"/>
</g>
<g>
</g>
<g>
</g>
<g>
</g>
<g>
</g>
<g>
</g>
<g>
</g>
<g>
</g>
<g>
</g>
<g>
</g>
<g>
</g>
<g>
</g>
<g>
</g>
<g>
</g>
<g>
</g>
<g>
</g>
</svg>
